<svg width="48" height="48" viewBox="0 0 48 48" fill="none" xmlns="http://www.w3.org/2000/svg">
    <!-- Rectangle with a border radius and a cut-out at the bottom left -->
    <path d="M4 44 L4 4 A4 4 0 0 1 8 0 L44 0 A4 4 0 0 1 48 4 L48 44 A4 4 0 0 1 44 48 L8 48 Q4 48 4 44 M4 44 Q4 36 4 30 L14 30 L14 40 L4 40 Z" fill="#FFA500"/>
    
    <!-- Nested SVG icon -->
    <svg x="12" y="12" width="24" height="24" viewBox="0 0 384 512" xmlns="http://www.w3.org/2000/svg">
        
        <path d="M64 48c-8.8 0-16 7.2-16 16V448c0 8.8 7.2 16 16 16h80V400c0-26.5 21.5-48 48-48s48 21.5 48 48v64h80c8.8 0 16-7.2 16-16V64c0-8.8-7.2-16-16-16H64zM0 64C0 28.7 28.7 0 64 0H320c35.3 0 64 28.7 64 64V448c0 35.3-28.7 64-64 64H64c-35.3 0-64-28.7-64-64V64zm88 40c0-8.8 7.2-16 16-16h48c8.8 0 16 7.2 16 16v48c0 8.8-7.2 16-16 16H104c-8.8 0-16-7.2-16-16V104zM232 88h48c8.8 0 16 7.2 16 16v48c0 8.8-7.2 16-16 16H232c-8.8 0-16-7.2-16-16V104c0-8.8 7.2-16 16-16zM88 232c0-8.8 7.2-16 16-16h48c8.8 0 16 7.2 16 16v48c0 8.8-7.2 16-16 16H104c-8.8 0-16-7.2-16-16V232zm144-16h48c8.8 0 16 7.2 16 16v48c0 8.8-7.2 16-16 16H232c-8.8 0-16-7.2-16-16V232c0-8.8 7.2-16 16-16z" fill="white"/>
    </svg>
    <!-- End of nested SVG icon -->
</svg>
